<svg width="12" height="13" viewBox="0 0 12 13" fill="none" xmlns="http://www.w3.org/2000/svg">
<path d="M11.5388 2.17687C11.4571 2.09615 11.359 2.03203 11.2503 1.98841C11.1416 1.9448 11.0246 1.92261 10.9066 1.92318H10.0009V1.28186C10.0029 1.14121 9.97455 1.00165 9.91746 0.871787C9.86037 0.741923 9.77579 0.624512 9.66893 0.526797C9.56566 0.425748 9.44163 0.345796 9.30448 0.29187C9.16734 0.237943 9.01998 0.211185 8.87149 0.213245H8.42022C8.27168 0.211282 8.12428 0.238158 7.98713 0.292214C7.84998 0.34627 7.72599 0.426361 7.62279 0.527545C7.51589 0.625234 7.43128 0.74264 7.37419 0.87251C7.3171 1.00238 7.28873 1.14195 7.29085 1.28261V1.92393H4.58085V1.28186C4.58292 1.14121 4.55454 1.00165 4.49745 0.871787C4.44036 0.741923 4.35578 0.624512 4.24892 0.526797C4.14574 0.42584 4.02184 0.345942 3.88484 0.292019C3.74784 0.238096 3.60063 0.211288 3.45227 0.213245H3.001C2.85246 0.211282 2.70507 0.238158 2.56792 0.292214C2.43077 0.34627 2.30677 0.426361 2.20357 0.527545C2.09671 0.625261 2.01212 0.742672 1.95503 0.872535C1.89795 1.0024 1.86956 1.14196 1.87164 1.28261V1.92393H0.968299C0.850243 1.92335 0.733301 1.94555 0.6246 1.98916C0.515899 2.03278 0.417717 2.0969 0.336045 2.17762C0.250797 2.25495 0.183077 2.34792 0.137015 2.45084C0.0909525 2.55377 0.0675133 2.6645 0.0681258 2.77628V11.3305C0.0711732 11.556 0.16687 11.7715 0.33492 11.9313C0.50297 12.0911 0.730154 12.1827 0.968299 12.1866H10.9034C11.142 12.1835 11.3698 12.0924 11.5385 11.9326C11.7072 11.7729 11.8035 11.5571 11.8067 11.3312V2.77853C11.8078 2.66624 11.7846 2.55494 11.7385 2.45147C11.6924 2.348 11.6245 2.25455 11.5388 2.17687ZM3.00337 11.3305H0.968299V9.40651H3.00021L3.00337 11.3305ZM3.00337 8.97846H0.968299V6.84048H3.00021L3.00337 8.97846ZM3.00337 6.41243H0.968299V4.48847H3.00021L3.00337 6.41243ZM2.84531 3.35549C2.82392 3.3362 2.80693 3.31297 2.79538 3.28724C2.78383 3.2615 2.77796 3.23379 2.77813 3.20583V1.28186C2.77895 1.22534 2.80303 1.17135 2.84524 1.13138C2.88745 1.09141 2.94447 1.06862 3.00416 1.06784H3.45227C3.51197 1.06862 3.56898 1.09141 3.6112 1.13138C3.65341 1.17135 3.67749 1.22534 3.6783 1.28186V3.20658C3.67749 3.2631 3.65341 3.31709 3.6112 3.35706C3.56898 3.39703 3.51197 3.41982 3.45227 3.4206H3.001C2.97115 3.42083 2.94157 3.41523 2.9141 3.40416C2.88664 3.39309 2.86187 3.37678 2.84136 3.35624L2.84531 3.35549ZM5.71338 11.3297H3.45227V9.40651H5.71021L5.71338 11.3297ZM5.71338 8.97772H3.45227V6.84048H5.71021L5.71338 8.97772ZM5.71338 6.41168H3.45227V4.48847H5.71021L5.71338 6.41168ZM8.42338 11.329H6.16149V9.40651H8.41943L8.42338 11.329ZM8.42338 8.97697H6.16149V6.84048H8.41943L8.42338 8.97697ZM8.42338 6.41093H6.16149V4.48847H8.41943L8.42338 6.41093ZM8.26532 3.354C8.24354 3.33526 8.22601 3.31254 8.21378 3.2872C8.20155 3.26185 8.19489 3.23443 8.19419 3.20658V1.28186C8.19481 1.22528 8.21882 1.17118 8.26107 1.13117C8.30333 1.09116 8.36046 1.06843 8.42022 1.06784H8.87149C8.93125 1.06843 8.98838 1.09116 9.03064 1.13117C9.07289 1.17118 9.09691 1.22528 9.09752 1.28186V3.20658C9.09691 3.26316 9.07289 3.31726 9.03064 3.35727C8.98838 3.39728 8.93125 3.42001 8.87149 3.4206H8.42022C8.39036 3.42087 8.36077 3.4153 8.33329 3.40422C8.30582 3.39315 8.28106 3.37681 8.26058 3.35624L8.26532 3.354ZM10.9081 11.3282H8.87149V9.40651H10.9034L10.9081 11.3282ZM10.9081 8.97622H8.87149V6.84048H10.9034L10.9081 8.97622ZM10.9081 6.41019H8.87149V4.48847H10.9034L10.9081 6.41019Z" fill="#333333"/>
</svg>
