<svg width="16" height="16" viewBox="0 0 16 16" fill="none" xmlns="http://www.w3.org/2000/svg">
<path d="M11.2961 1.53455L9.61853 1.53186C7.73386 1.53186 6.51591 2.78144 6.51591 4.7155V6.18337H4.82921C4.68346 6.18337 4.56543 6.30153 4.56543 6.44728V8.57406C4.56543 8.71981 4.68359 8.83784 4.82921 8.83784H6.51591V14.2044C6.51591 14.3501 6.63393 14.4681 6.77968 14.4681H8.98035C9.1261 14.4681 9.24412 14.35 9.24412 14.2044V8.83784H11.2163C11.362 8.83784 11.48 8.71981 11.48 8.57406L11.4809 6.44728C11.4809 6.3773 11.453 6.31028 11.4036 6.26075C11.3542 6.21123 11.2869 6.18337 11.2169 6.18337H9.24412V4.93904C9.24412 4.34096 9.38664 4.03735 10.1657 4.03735L11.2958 4.03694C11.4414 4.03694 11.5594 3.91878 11.5594 3.77317V1.79833C11.5594 1.65285 11.4416 1.53482 11.2961 1.53455Z" fill="#A3A3A3"/>
</svg>
