<svg width="13" height="13" viewBox="0 0 13 13" fill="none" xmlns="http://www.w3.org/2000/svg">
<g clip-path="url(#clip0_2_142)">
<path d="M9.48173 0H3.51971C1.57931 0 0.000732422 1.57858 0.000732422 3.51898V9.4811C0.000732422 11.4214 1.57931 13 3.51971 13H9.48183C11.4221 13 13.0007 11.4214 13.0007 9.4811V3.51898C13.0007 1.57858 11.4221 0 9.48173 0V0ZM12.2386 9.4811C12.2386 11.0012 11.0019 12.2379 9.48173 12.2379H3.51971C1.99955 12.2379 0.762847 11.0012 0.762847 9.4811V3.51898C0.762847 1.99881 1.99955 0.762114 3.51971 0.762114H9.48183C11.0019 0.762114 12.2386 1.99881 12.2386 3.51898V9.4811Z" fill="black"/>
<path d="M6.50075 2.94541C4.54071 2.94541 2.94617 4.53995 2.94617 6.49999C2.94617 8.46002 4.54071 10.0546 6.50075 10.0546C8.46078 10.0546 10.0553 8.46002 10.0553 6.49999C10.0553 4.53995 8.46078 2.94541 6.50075 2.94541V2.94541ZM6.50075 9.29246C4.96105 9.29246 3.70828 8.03979 3.70828 6.49999C3.70828 4.96029 4.96105 3.70752 6.50075 3.70752C8.04055 3.70752 9.29322 4.96029 9.29322 6.49999C9.29322 8.03979 8.04055 9.29246 6.50075 9.29246V9.29246Z" fill="black"/>
<path d="M10.1403 1.68302C9.56108 1.68302 9.08997 2.15423 9.08997 2.73336C9.08997 3.31258 9.56108 3.78379 10.1403 3.78379C10.7195 3.78379 11.1907 3.31258 11.1907 2.73336C11.1907 2.15413 10.7195 1.68302 10.1403 1.68302ZM10.1403 3.02158C9.98141 3.02158 9.85208 2.89225 9.85208 2.73336C9.85208 2.57437 9.98141 2.44513 10.1403 2.44513C10.2993 2.44513 10.4286 2.57437 10.4286 2.73336C10.4286 2.89225 10.2993 3.02158 10.1403 3.02158Z" fill="black"/>
</g>
<defs>
<clipPath id="clip0_2_142">
<rect width="13" height="13" fill="white" transform="translate(0.000732422)"/>
</clipPath>
</defs>
</svg>
