<svg width="16" height="16" viewBox="0 0 16 16" fill="none" xmlns="http://www.w3.org/2000/svg">
<g clip-path="url(#clip0_2_198)">
<path d="M8.26562 1.88064C10.2682 1.88064 10.5054 1.88826 11.2962 1.92436C12.0275 1.95775 12.4246 2.07992 12.6889 2.18261C13.039 2.31866 13.2888 2.4812 13.5513 2.74364C13.8137 3.00608 13.9763 3.25593 14.1123 3.60603C14.215 3.87031 14.3372 4.26743 14.3705 4.99865C14.4066 5.78952 14.4142 6.02671 14.4142 8.0293C14.4142 10.0319 14.4066 10.2691 14.3705 11.0599C14.3372 11.7912 14.215 12.1883 14.1123 12.4526C13.9762 12.8026 13.8137 13.0525 13.5513 13.315C13.2888 13.5774 13.039 13.7399 12.6889 13.876C12.4246 13.9787 12.0275 14.1009 11.2962 14.1342C10.5055 14.1702 10.2683 14.1779 8.26562 14.1779C6.26289 14.1779 6.02573 14.1702 5.23498 14.1342C4.50376 14.1008 4.10661 13.9786 3.84232 13.876C3.49226 13.7399 3.24238 13.5774 2.97997 13.315C2.71753 13.0525 2.55499 12.8027 2.41894 12.4526C2.31625 12.1883 2.19408 11.7912 2.16068 11.0599C2.12462 10.2691 2.11697 10.0319 2.11697 8.0293C2.11697 6.02671 2.12459 5.78949 2.16068 4.99865C2.19408 4.26743 2.31625 3.87028 2.41894 3.606C2.55499 3.25593 2.71753 3.00605 2.97997 2.74364C3.24241 2.4812 3.49226 2.31866 3.84235 2.18261C4.10664 2.07992 4.50379 1.95775 5.23498 1.92436C6.02582 1.88829 6.26304 1.88064 8.26562 1.88064ZM8.26562 0.529297C6.22876 0.529297 5.97335 0.53791 5.1734 0.574443C4.37509 0.610859 3.8299 0.737627 3.35283 0.923047C2.85965 1.11471 2.44138 1.37114 2.02442 1.7881C1.60747 2.20505 1.35104 2.62332 1.15937 3.1165C0.973955 3.59357 0.847188 4.13876 0.810771 4.93707C0.774238 5.73702 0.765625 5.9924 0.765625 8.0293C0.765625 10.0662 0.774238 10.3216 0.810771 11.1215C0.847188 11.9198 0.973984 12.465 1.15937 12.9421C1.35104 13.4353 1.60747 13.8535 2.02442 14.2705C2.44138 14.6875 2.85965 14.9439 3.35283 15.1356C3.8299 15.321 4.37509 15.4478 5.1734 15.4842C5.97335 15.5207 6.22876 15.5293 8.26562 15.5293C10.3025 15.5293 10.5579 15.5207 11.3579 15.4842C12.1562 15.4478 12.7013 15.321 13.1784 15.1356C13.6716 14.9439 14.0899 14.6875 14.5069 14.2705C14.9238 13.8536 15.1802 13.4353 15.3719 12.9421C15.5573 12.465 15.6841 11.9198 15.7205 11.1215C15.757 10.3216 15.7656 10.0662 15.7656 8.0293C15.7656 5.99243 15.757 5.73702 15.7205 4.93707C15.6841 4.13876 15.5573 3.5936 15.3719 3.1165C15.1802 2.62332 14.9238 2.20505 14.5069 1.7881C14.0899 1.37114 13.6716 1.11471 13.1784 0.923047C12.7014 0.737627 12.1562 0.610859 11.3579 0.574443C10.5579 0.53791 10.3025 0.529297 8.26562 0.529297Z" fill="#A3A3A3"/>
<path d="M8.26564 4.17798C6.1386 4.17798 4.41431 5.90228 4.41431 8.02932C4.41431 10.1564 6.1386 11.8807 8.26564 11.8807C10.3927 11.8807 12.117 10.1564 12.117 8.02932C12.117 5.90228 10.3927 4.17798 8.26564 4.17798ZM8.26564 10.5293C6.88494 10.5293 5.76565 9.41002 5.76565 8.02932C5.76565 6.64861 6.88494 5.52933 8.26564 5.52933C9.64635 5.52933 10.7656 6.64861 10.7656 8.02932C10.7656 9.41002 9.64635 10.5293 8.26564 10.5293Z" fill="#A3A3A3"/>
<path d="M12.2691 4.92573C12.7662 4.92573 13.1691 4.52279 13.1691 4.02573C13.1691 3.52868 12.7662 3.12573 12.2691 3.12573C11.7721 3.12573 11.3691 3.52868 11.3691 4.02573C11.3691 4.52279 11.7721 4.92573 12.2691 4.92573Z" fill="#A3A3A3"/>
</g>
<defs>
<clipPath id="clip0_2_198">
<rect width="15" height="15" fill="white" transform="translate(0.765625 0.5)"/>
</clipPath>
</defs>
</svg>
