<svg width="11" height="11" viewBox="0 0 11 11" fill="none" xmlns="http://www.w3.org/2000/svg">
<g clip-path="url(#clip0_2_156)">
<path d="M10.9979 11V10.9995H11.0007V6.96528C11.0007 4.9917 10.5758 3.47141 8.26856 3.47141C7.1594 3.47141 6.41506 4.08008 6.11119 4.65712H6.07911V3.65566H3.89148V10.9995H6.1694V7.36312C6.1694 6.40566 6.3509 5.47983 7.53661 5.47983C8.7049 5.47983 8.72231 6.57249 8.72231 7.42453V11H10.9979Z" fill="black"/>
<path d="M0.182251 3.65612H2.46292V11H0.182251V3.65612Z" fill="black"/>
<path d="M1.32165 0C0.592441 0 0.000732422 0.591708 0.000732422 1.32092C0.000732422 2.05013 0.592441 2.65421 1.32165 2.65421C2.05086 2.65421 2.64257 2.05013 2.64257 1.32092C2.64211 0.591708 2.0504 0 1.32165 0V0Z" fill="black"/>
</g>
<defs>
<clipPath id="clip0_2_156">
<rect width="11" height="11" fill="white" transform="translate(0.000732422)"/>
</clipPath>
</defs>
</svg>
