<svg width="15" height="16" viewBox="0 0 15 16" fill="none" xmlns="http://www.w3.org/2000/svg">
<path d="M3.05469 3.28902C4.38665 1.93042 5.99154 1.25113 7.86938 1.25113C9.74721 1.25113 11.3521 1.93042 12.6841 3.28902C14.016 4.64761 14.682 6.2846 14.682 8.19999C14.682 10.1154 14.016 11.7524 12.6841 13.111C11.3521 14.4696 9.74721 15.1489 7.86938 15.1489C5.99154 15.1489 4.38665 14.4696 3.05469 13.111C1.72274 11.7524 1.05676 10.1154 1.05676 8.19999C1.05676 6.2846 1.72274 4.64761 3.05469 3.28902ZM3.44773 12.7101C4.6705 13.9573 6.14439 14.5809 7.86938 14.5809C9.59437 14.5809 11.0682 13.9573 12.291 12.7101C13.5138 11.4628 14.1252 9.95948 14.1252 8.19999C14.1252 6.4405 13.5138 4.93714 12.291 3.68991C11.0682 2.44268 9.59437 1.81906 7.86938 1.81906C6.14439 1.81906 4.6705 2.44268 3.44773 3.68991C2.22495 4.93714 1.61356 6.4405 1.61356 8.19999C1.61356 9.95948 2.22495 11.4628 3.44773 12.7101ZM7.86938 8.19999V3.92377H8.42618V8.76793H4.72509V8.19999H7.86938Z" fill="#333333"/>
<path fill-rule="evenodd" clip-rule="evenodd" d="M7.86938 1.50609C6.05808 1.50609 4.5167 2.15836 3.23147 3.46929C1.94624 4.78023 1.30676 6.35243 1.30676 8.19996C1.30676 10.0475 1.94624 11.6197 3.23147 12.9306C4.5167 14.2416 6.05808 14.8938 7.86938 14.8938C9.68068 14.8938 11.222 14.2416 12.5073 12.9306C13.7925 11.6197 14.432 10.0475 14.432 8.19996C14.432 6.35243 13.7925 4.78023 12.5073 3.46929C11.222 2.15836 9.68068 1.50609 7.86938 1.50609ZM2.87792 3.10867C4.25659 1.70242 5.925 0.996094 7.86938 0.996094C9.81375 0.996094 11.4822 1.70242 12.8608 3.10867C14.2395 4.51492 14.932 6.2167 14.932 8.19996C14.932 10.1832 14.2395 11.885 12.8608 13.2912C11.4822 14.6975 9.81375 15.4038 7.86938 15.4038C5.925 15.4038 4.25659 14.6975 2.87792 13.2912C1.49924 11.885 0.806763 10.1832 0.806763 8.19996C0.806763 6.2167 1.49924 4.51492 2.87792 3.10867ZM3.27095 3.50957C4.54048 2.21465 6.0779 1.56403 7.86938 1.56403C9.66085 1.56403 11.1983 2.21465 12.4678 3.50957C13.7373 4.80448 14.3752 6.37265 14.3752 8.19996C14.3752 10.0273 13.7373 11.5954 12.4678 12.8904C11.1983 14.1853 9.66085 14.8359 7.86938 14.8359C6.0779 14.8359 4.54048 14.1853 3.27095 12.8904C2.00142 11.5954 1.36356 10.0273 1.36356 8.19996C1.36356 6.37265 2.00142 4.80448 3.27095 3.50957ZM7.86938 2.07403C6.21088 2.07403 4.80053 2.67065 3.6245 3.87019C2.44848 5.06973 1.86356 6.50829 1.86356 8.19996C1.86356 9.89163 2.44848 11.3302 3.6245 12.5297C4.80053 13.7293 6.21088 14.3259 7.86938 14.3259C9.52788 14.3259 10.9382 13.7293 12.1142 12.5297C13.2903 11.3302 13.8752 9.89163 13.8752 8.19996C13.8752 6.50829 13.2903 5.06973 12.1142 3.87019C10.9382 2.67065 9.52788 2.07403 7.86938 2.07403ZM7.61938 3.66873H8.67618V9.02289H4.47509V7.94496H7.61938V3.66873ZM8.11938 4.17873V8.45496H4.97509V8.5129H8.17618V4.17873H8.11938Z" fill="#333333"/>
</svg>
